<svg width="156" height="56" viewBox="0 0 156 56" fill="none" xmlns="http://www.w3.org/2000/svg">
<path d="M52.702 29.514C52.702 27.21 54.61 25.608 57.382 25.608C60.046 25.608 61.738 27.084 61.81 29.46H59.506C59.452 28.326 58.642 27.66 57.346 27.66C55.924 27.66 55.006 28.344 55.006 29.442C55.006 30.378 55.51 30.9 56.608 31.152L58.678 31.602C60.928 32.088 62.026 33.24 62.026 35.202C62.026 37.65 60.118 39.234 57.22 39.234C54.412 39.234 52.576 37.74 52.522 35.382H54.826C54.844 36.498 55.744 37.164 57.22 37.164C58.75 37.164 59.722 36.498 59.722 35.4C59.722 34.518 59.272 33.996 58.192 33.762L56.104 33.294C53.872 32.808 52.702 31.53 52.702 29.514ZM66.8103 39H64.6143V31.944H62.9043V30.108H64.6143V27.336H66.8103V30.108H68.5383V31.944H66.8103V39ZM72.4968 39.234C70.6068 39.234 69.4548 38.136 69.4548 36.462C69.4548 34.824 70.6428 33.798 72.7488 33.636L75.4128 33.438V33.24C75.4128 32.034 74.6928 31.548 73.5768 31.548C72.2808 31.548 71.5608 32.088 71.5608 33.024H69.6888C69.6888 31.098 71.2728 29.838 73.6848 29.838C76.0788 29.838 77.5548 31.134 77.5548 33.6V39H75.6288L75.4668 37.686C75.0888 38.604 73.8828 39.234 72.4968 39.234ZM73.2168 37.578C74.5668 37.578 75.4308 36.768 75.4308 35.4V34.932L73.5768 35.076C72.2088 35.202 71.6868 35.652 71.6868 36.372C71.6868 37.182 72.2268 37.578 73.2168 37.578ZM85.2921 30.072V32.106H84.4821C82.8981 32.106 81.9081 32.952 81.9081 34.68V39H79.7121V30.126H81.7821L81.9081 31.422C82.2861 30.54 83.1321 29.946 84.3201 29.946C84.6261 29.946 84.9321 29.982 85.2921 30.072ZM90.1541 39H87.9581V31.944H86.2481V30.108H87.9581V27.336H90.1541V30.108H91.8821V31.944H90.1541V39Z" fill="#939599"/>
<path d="M99.3313 27.786C96.7213 27.786 95.2273 29.676 95.2273 32.52C95.2273 35.454 96.9193 37.056 99.3493 37.056C101.635 37.056 103.021 35.796 103.021 33.69V33.636H99.0433V31.602H105.163V39H103.219L103.075 37.488C102.355 38.496 100.861 39.198 99.0793 39.198C95.3893 39.198 92.8153 36.516 92.8153 32.466C92.8153 28.47 95.4253 25.626 99.3853 25.626C102.391 25.626 104.713 27.372 105.091 30.054H102.661C102.247 28.506 100.915 27.786 99.3313 27.786ZM109.541 39H107.363V25.608H109.541V39ZM111.323 34.536C111.323 31.764 113.321 29.856 116.075 29.856C118.829 29.856 120.827 31.764 120.827 34.536C120.827 37.308 118.829 39.216 116.075 39.216C113.321 39.216 111.323 37.308 111.323 34.536ZM113.519 34.536C113.519 36.156 114.563 37.254 116.075 37.254C117.587 37.254 118.631 36.156 118.631 34.536C118.631 32.916 117.587 31.818 116.075 31.818C114.563 31.818 113.519 32.916 113.519 34.536ZM124.602 39H122.568V25.608H124.764V31.404C125.34 30.414 126.528 29.82 127.878 29.82C130.416 29.82 131.964 31.8 131.964 34.608C131.964 37.344 130.29 39.234 127.734 39.234C126.402 39.234 125.268 38.64 124.746 37.614L124.602 39ZM124.782 34.518C124.782 36.12 125.772 37.218 127.284 37.218C128.832 37.218 129.75 36.102 129.75 34.518C129.75 32.934 128.832 31.8 127.284 31.8C125.772 31.8 124.782 32.916 124.782 34.518ZM136.358 39.234C134.468 39.234 133.316 38.136 133.316 36.462C133.316 34.824 134.504 33.798 136.61 33.636L139.274 33.438V33.24C139.274 32.034 138.554 31.548 137.438 31.548C136.142 31.548 135.422 32.088 135.422 33.024H133.55C133.55 31.098 135.134 29.838 137.546 29.838C139.94 29.838 141.416 31.134 141.416 33.6V39H139.49L139.328 37.686C138.95 38.604 137.744 39.234 136.358 39.234ZM137.078 37.578C138.428 37.578 139.292 36.768 139.292 35.4V34.932L137.438 35.076C136.07 35.202 135.548 35.652 135.548 36.372C135.548 37.182 136.088 37.578 137.078 37.578ZM145.787 39H143.609V25.608H145.787V39Z" fill="#494D61"/>
<path d="M41.628 13.876C49.2915 21.5395 49.2915 33.9645 41.628 41.628C33.9645 49.2915 21.5395 49.2915 13.876 41.628C6.21249 33.9645 13.876 13.876 13.876 13.876C13.876 13.876 33.9645 6.21249 41.628 13.876Z" fill="#005EF6"/>
<path d="M19.2 38.68H24.88C24.96 40.2 26 41.04 27.8 41.04C29.52 41.04 30.68 40.32 30.68 39.24C30.68 38.36 30.28 37.96 29.08 37.6L25.56 36.48C22.8 35.6 21.08 33.92 21.08 31.2C21.08 27 24.28 24.44 29.56 24.44C34 24.44 37.08 27.2 37.08 31.12H31.4C31.4 29.72 30.48 28.8 29.04 28.8C27.52 28.8 26.72 29.4 26.72 30.52C26.72 31.36 27.36 32 28.68 32.44L32.12 33.56C35 34.48 36.4 36.12 36.4 38.52C36.4 42.88 33.04 45.44 27.36 45.44C22.4 45.44 19.2 42.8 19.2 38.68Z" fill="white"/>
</svg>
