<svg width="199" height="16" viewBox="0 0 199 16" fill="none" xmlns="http://www.w3.org/2000/svg">
<path d="M58.7393 2.34166C58.9793 1.60486 60.0217 1.60486 60.2609 2.34166L61.1169 4.97526C61.1692 5.13565 61.2708 5.27541 61.4073 5.37455C61.5438 5.47369 61.7082 5.52714 61.8769 5.52726H64.6465C65.4217 5.52726 65.7433 6.51926 65.1169 6.97526L62.8769 8.60246C62.7401 8.70169 62.6383 8.84167 62.5859 9.00234C62.5336 9.16302 62.5335 9.33613 62.5857 9.49686L63.4417 12.1305C63.6817 12.8673 62.8377 13.4809 62.2097 13.0249L59.9697 11.3977C59.833 11.2985 59.6685 11.245 59.4997 11.245C59.3308 11.245 59.1663 11.2985 59.0297 11.3977L56.7897 13.0249C56.1625 13.4809 55.3193 12.8673 55.5585 12.1305L56.4145 9.49686C56.4666 9.33613 56.4665 9.16302 56.4142 9.00234C56.3619 8.84167 56.2601 8.70169 56.1233 8.60246L53.8841 6.97606C53.2577 6.52006 53.5801 5.52806 54.3545 5.52806H57.1233C57.2921 5.52811 57.4566 5.47473 57.5933 5.37558C57.73 5.27643 57.8317 5.13658 57.8841 4.97606L58.7401 2.34246L58.7393 2.34166Z" fill="#939599"/>
<path d="M78.7393 2.34166C78.9793 1.60486 80.0217 1.60486 80.2609 2.34166L81.1169 4.97526C81.1692 5.13565 81.2708 5.27541 81.4073 5.37455C81.5438 5.47369 81.7082 5.52714 81.8769 5.52726H84.6465C85.4217 5.52726 85.7433 6.51926 85.1169 6.97526L82.8769 8.60246C82.7401 8.70169 82.6383 8.84167 82.5859 9.00234C82.5336 9.16302 82.5335 9.33613 82.5857 9.49686L83.4417 12.1305C83.6817 12.8673 82.8377 13.4809 82.2097 13.0249L79.9697 11.3977C79.833 11.2985 79.6685 11.245 79.4997 11.245C79.3308 11.245 79.1663 11.2985 79.0297 11.3977L76.7897 13.0249C76.1625 13.4809 75.3193 12.8673 75.5585 12.1305L76.4145 9.49686C76.4666 9.33613 76.4665 9.16302 76.4142 9.00234C76.3619 8.84167 76.2601 8.70169 76.1233 8.60246L73.8841 6.97606C73.2577 6.52006 73.5801 5.52806 74.3545 5.52806H77.1233C77.2921 5.52811 77.4566 5.47473 77.5933 5.37558C77.73 5.27643 77.8317 5.13658 77.8841 4.97606L78.7401 2.34246L78.7393 2.34166Z" fill="#939599"/>
<path d="M98.7393 2.34166C98.9793 1.60486 100.022 1.60486 100.261 2.34166L101.117 4.97526C101.169 5.13565 101.271 5.27541 101.407 5.37455C101.544 5.47369 101.708 5.52714 101.877 5.52726H104.646C105.422 5.52726 105.743 6.51926 105.117 6.97526L102.877 8.60246C102.74 8.70169 102.638 8.84167 102.586 9.00234C102.534 9.16302 102.534 9.33613 102.586 9.49686L103.442 12.1305C103.682 12.8673 102.838 13.4809 102.21 13.0249L99.9697 11.3977C99.833 11.2985 99.6685 11.245 99.4997 11.245C99.3308 11.245 99.1663 11.2985 99.0297 11.3977L96.7897 13.0249C96.1625 13.4809 95.3193 12.8673 95.5585 12.1305L96.4145 9.49686C96.4666 9.33613 96.4665 9.16302 96.4142 9.00234C96.3619 8.84167 96.2601 8.70169 96.1233 8.60246L93.8841 6.97606C93.2577 6.52006 93.5801 5.52806 94.3545 5.52806H97.1233C97.2921 5.52811 97.4566 5.47473 97.5933 5.37558C97.73 5.27643 97.8317 5.13658 97.8841 4.97606L98.7401 2.34246L98.7393 2.34166Z" fill="#939599"/>
<path d="M118.739 2.34166C118.979 1.60486 120.022 1.60486 120.261 2.34166L121.117 4.97526C121.169 5.13565 121.271 5.27541 121.407 5.37455C121.544 5.47369 121.708 5.52714 121.877 5.52726H124.646C125.422 5.52726 125.743 6.51926 125.117 6.97526L122.877 8.60246C122.74 8.70169 122.638 8.84167 122.586 9.00234C122.534 9.16302 122.534 9.33613 122.586 9.49686L123.442 12.1305C123.682 12.8673 122.838 13.4809 122.21 13.0249L119.97 11.3977C119.833 11.2985 119.669 11.245 119.5 11.245C119.331 11.245 119.166 11.2985 119.03 11.3977L116.79 13.0249C116.162 13.4809 115.319 12.8673 115.558 12.1305L116.414 9.49686C116.467 9.33613 116.467 9.16302 116.414 9.00234C116.362 8.84167 116.26 8.70169 116.123 8.60246L113.884 6.97606C113.258 6.52006 113.58 5.52806 114.354 5.52806H117.123C117.292 5.52811 117.457 5.47473 117.593 5.37558C117.73 5.27643 117.832 5.13658 117.884 4.97606L118.74 2.34246L118.739 2.34166Z" fill="#939599"/>
<path d="M138.739 2.34166C138.979 1.60486 140.022 1.60486 140.261 2.34166L141.117 4.97526C141.169 5.13565 141.271 5.27541 141.407 5.37455C141.544 5.47369 141.708 5.52714 141.877 5.52726H144.646C145.422 5.52726 145.743 6.51926 145.117 6.97526L142.877 8.60246C142.74 8.70169 142.638 8.84167 142.586 9.00234C142.534 9.16302 142.534 9.33613 142.586 9.49686L143.442 12.1305C143.682 12.8673 142.838 13.4809 142.21 13.0249L139.97 11.3977C139.833 11.2985 139.669 11.245 139.5 11.245C139.331 11.245 139.166 11.2985 139.03 11.3977L136.79 13.0249C136.162 13.4809 135.319 12.8673 135.558 12.1305L136.414 9.49686C136.467 9.33613 136.467 9.16302 136.414 9.00234C136.362 8.84167 136.26 8.70169 136.123 8.60246L133.884 6.97606C133.258 6.52006 133.58 5.52806 134.354 5.52806H137.123C137.292 5.52811 137.457 5.47473 137.593 5.37558C137.73 5.27643 137.832 5.13658 137.884 4.97606L138.74 2.34246L138.739 2.34166Z" fill="#939599"/>
</svg>
